<svg width="20" height="20" viewBox="0 0 48 48" aria-hidden="true">
    <g>
        <path fill="#4285F4" d="M24 9.5c3.54 0 6.73 1.22 9.24 3.23l6.91-6.91C36.36 2.34 30.61 0 24 0 14.82 0 6.73 5.48 2.69 13.44l8.51 6.62C13.13 13.16 18.17 9.5 24 9.5z"></path>
        <path fill="#34A853" d="M46.1 24.5c0-1.64-.15-3.22-.43-4.75H24v9.02h12.44c-.54 2.92-2.18 5.39-4.65 7.06l7.23 5.62C43.99 37.62 46.1 31.61 46.1 24.5z"></path>
        <path fill="#FBBC05" d="M11.2 28.06c-1.04-3.09-1.04-6.43 0-9.52l-8.51-6.62C.99 16.84 0 20.29 0 24c0 3.71.99 7.16 2.69 10.08l8.51-6.62z"></path>
        <path fill="#EA4335" d="M24 48c6.61 0 12.36-2.17 16.91-5.93l-7.23-5.62c-2.01 1.35-4.59 2.15-7.68 2.15-5.83 0-10.87-3.66-12.8-8.62l-8.51 6.62C6.73 42.52 14.82 48 24 48z"></path>
        <path fill="none" d="M0 0h48v48H0z"></path>
    </g>
</svg>